<svg viewBox="0 0 192 144" fill="none" xmlns="http://www.w3.org/2000/svg">
<g clip-path="url(#clip0)">
<path fill-rule="evenodd" clip-rule="evenodd" d="M149 80V67.607C148.987 71.8353 147.433 76.0624 144.4 80H96V144L192 88V80H149Z" fill="#17E6E6"/>
<path fill-rule="evenodd" clip-rule="evenodd" d="M149 80V67.607C148.987 71.8353 147.433 76.0624 144.4 80H96V144L192 88V80H149Z" fill="url(#paint0_linear)"/>
<path d="M0 88L96 144V80H0V88Z" fill="#FFD966"/>
<path d="M0 88L96 144V80H0V88Z" fill="url(#paint1_linear)"/>
<path d="M96 136L192 80H0L96 136Z" fill="#3825B8"/>
<path fill-rule="evenodd" clip-rule="evenodd" d="M58.6667 45.7778L0 80L74.6667 123.556L96 136L192 80H144.4C147.459 76.0292 149.013 71.764 149 67.5C148.976 59.6365 143.618 51.7774 133.333 45.7778C112.715 33.7502 79.2853 33.7502 58.6667 45.7778Z" fill="url(#paint2_radial)"/>
<path fill-rule="evenodd" clip-rule="evenodd" d="M58.6667 45.7778L0 80L74.6667 123.556L96 136L192 80H144.4C147.459 76.0292 149.013 71.764 149 67.5C148.976 59.6365 143.618 51.7774 133.333 45.7778C112.715 33.7502 79.2853 33.7502 58.6667 45.7778Z" fill="url(#paint3_linear)"/>
<path fill-rule="evenodd" clip-rule="evenodd" d="M58.6667 45.7778L0 80L74.6667 123.556L96 136L192 80H144.4C147.459 76.0292 149.013 71.764 149 67.5C148.976 59.6365 143.618 51.7774 133.333 45.7778C112.715 33.7502 79.2853 33.7502 58.6667 45.7778Z" fill="url(#paint4_radial)" fill-opacity="0.75"/>
<path fill-rule="evenodd" clip-rule="evenodd" d="M149 48V35.607C148.987 39.8353 147.433 44.0624 144.4 48H96V112L192 56V48H149Z" fill="#17E6E6"/>
<path fill-rule="evenodd" clip-rule="evenodd" d="M149 48V35.607C148.987 39.8353 147.433 44.0624 144.4 48H96V112L192 56V48H149Z" fill="url(#paint5_linear)"/>
<path d="M0 56L96 112V48H0V56Z" fill="#FFD966"/>
<path d="M0 56L96 112V48H0V56Z" fill="url(#paint6_linear)"/>
<path d="M96 104L192 48H0L96 104Z" fill="#3825B8"/>
<path fill-rule="evenodd" clip-rule="evenodd" d="M58.6667 13.7778L0 48L74.6667 91.5555L96 104L192 48H144.4C147.459 44.0292 149.013 39.764 149 35.5C148.976 27.6365 143.618 19.7774 133.333 13.7778C112.715 1.75024 79.2853 1.75024 58.6667 13.7778Z" fill="url(#paint7_radial)"/>
<path fill-rule="evenodd" clip-rule="evenodd" d="M58.6667 13.7778L0 48L74.6667 91.5555L96 104L192 48H144.4C147.459 44.0292 149.013 39.764 149 35.5C148.976 27.6365 143.618 19.7774 133.333 13.7778C112.715 1.75024 79.2853 1.75024 58.6667 13.7778Z" fill="url(#paint8_linear)"/>
<path fill-rule="evenodd" clip-rule="evenodd" d="M58.6667 13.7778L0 48L74.6667 91.5555L96 104L192 48H144.4C147.459 44.0292 149.013 39.764 149 35.5C148.976 27.6365 143.618 19.7774 133.333 13.7778C112.715 1.75024 79.2853 1.75024 58.6667 13.7778Z" fill="url(#paint9_radial)" fill-opacity="0.75"/>
</g>
<defs>
<linearGradient id="paint0_linear" x1="192" y1="83.5" x2="96" y2="83.5" gradientUnits="userSpaceOnUse">
<stop stop-color="#1701A6" stop-opacity="0"/>
<stop offset="1" stop-color="#841DBF"/>
</linearGradient>
<linearGradient id="paint1_linear" x1="96" y1="144" x2="0" y2="144" gradientUnits="userSpaceOnUse">
<stop stop-color="#FC208A"/>
<stop offset="1" stop-color="#FC208A" stop-opacity="0"/>
</linearGradient>
<radialGradient id="paint2_radial" cx="0" cy="0" r="1" gradientUnits="userSpaceOnUse" gradientTransform="translate(96 37) rotate(90) scale(99 151.246)">
<stop offset="0.121477" stop-color="#FA2296"/>
<stop offset="0.934417" stop-color="#FB2297" stop-opacity="0"/>
</radialGradient>
<linearGradient id="paint3_linear" x1="-1.06183e-06" y1="80.5" x2="96" y2="136" gradientUnits="userSpaceOnUse">
<stop stop-color="#FFD65A"/>
<stop offset="1" stop-color="#EDBB54" stop-opacity="0"/>
</linearGradient>
<radialGradient id="paint4_radial" cx="0" cy="0" r="1" gradientUnits="userSpaceOnUse" gradientTransform="translate(-1.28024e-07 79.5) rotate(30.4786) scale(111.392)">
<stop stop-color="white"/>
<stop offset="0.616327" stop-color="white" stop-opacity="0"/>
</radialGradient>
<linearGradient id="paint5_linear" x1="192" y1="51.5" x2="96" y2="51.5" gradientUnits="userSpaceOnUse">
<stop stop-color="#1701A6" stop-opacity="0"/>
<stop offset="1" stop-color="#841DBF"/>
</linearGradient>
<linearGradient id="paint6_linear" x1="96" y1="112" x2="0" y2="112" gradientUnits="userSpaceOnUse">
<stop stop-color="#FC208A"/>
<stop offset="1" stop-color="#FC208A" stop-opacity="0"/>
</linearGradient>
<radialGradient id="paint7_radial" cx="0" cy="0" r="1" gradientUnits="userSpaceOnUse" gradientTransform="translate(96 4.99999) rotate(90) scale(99 151.246)">
<stop offset="0.121477" stop-color="#FA2296"/>
<stop offset="0.934417" stop-color="#FB2297" stop-opacity="0"/>
</radialGradient>
<linearGradient id="paint8_linear" x1="-1.06183e-06" y1="48.5" x2="96" y2="104" gradientUnits="userSpaceOnUse">
<stop stop-color="#FFD65A"/>
<stop offset="1" stop-color="#EDBB54" stop-opacity="0"/>
</linearGradient>
<radialGradient id="paint9_radial" cx="0" cy="0" r="1" gradientUnits="userSpaceOnUse" gradientTransform="translate(-1.28024e-07 47.5) rotate(30.4786) scale(111.392)">
<stop stop-color="white"/>
<stop offset="0.616327" stop-color="white" stop-opacity="0"/>
</radialGradient>
<clipPath id="clip0">
<rect width="192" height="144" fill="white"/>
</clipPath>
</defs>
</svg>
